<svg width="22" height="20" viewBox="0 0 22 20" fill="none" xmlns="http://www.w3.org/2000/svg">
<path d="M0 1.25C0 0.559644 0.540989 0 1.20833 0H20.5417C21.209 0 21.75 0.559644 21.75 1.25C21.75 1.94036 21.209 2.5 20.5417 2.5H1.20833C0.54099 2.5 0 1.94036 0 1.25ZM0 10C0 9.30964 0.540989 8.75 1.20833 8.75H20.5417C21.209 8.75 21.75 9.30964 21.75 10C21.75 10.6904 21.209 11.25 20.5417 11.25H1.20833C0.54099 11.25 0 10.6904 0 10ZM0 18.75C0 18.0596 0.540989 17.5 1.20833 17.5H20.5417C21.209 17.5 21.75 18.0596 21.75 18.75C21.75 19.4404 21.209 20 20.5417 20H1.20833C0.54099 20 0 19.4404 0 18.75Z" fill="white"/>
</svg>
