<svg width="22" height="21" viewBox="0 0 22 21" fill="none" xmlns="http://www.w3.org/2000/svg">
<path d="M10.8344 1.65639C13.3792 -0.628355 17.3117 -0.552522 19.7633 1.90339C22.2138 4.36039 22.2983 8.27339 20.0189 10.8257L10.8323 20.0254L1.64776 10.8257C-0.631577 8.27339 -0.545993 4.35389 1.90342 1.90339C4.35717 -0.549272 8.28209 -0.631605 10.8344 1.65639ZM18.2293 3.43414C16.6043 1.80698 13.9826 1.7409 12.2818 3.26839L10.8355 4.56623L9.38817 3.26948C7.68192 1.73981 5.06567 1.80698 3.43634 3.43631C1.82217 5.05048 1.74092 7.63423 3.22834 9.34156L10.8333 16.9585L18.4383 9.34264C19.9268 7.63423 19.8456 5.05373 18.2293 3.43414Z" fill="white"/>
</svg>
