<svg width="26" height="26" viewBox="0 0 26 26" fill="none" xmlns="http://www.w3.org/2000/svg">
<g clip-path="url(#clip0_102_1803)">
<path d="M12.6748 9.50699C11.8343 9.50699 11.0283 9.84087 10.434 10.4352C9.83965 11.0295 9.50577 11.8356 9.50577 12.676C9.50577 13.5165 9.83965 14.3226 10.434 14.9169C11.0283 15.5112 11.8343 15.8451 12.6748 15.8451C13.5153 15.8451 14.3214 15.5112 14.9157 14.9169C15.51 14.3226 15.8439 13.5165 15.8439 12.676C15.8439 11.8356 15.51 11.0295 14.9157 10.4352C14.3214 9.84087 13.5153 9.50699 12.6748 9.50699ZM12.6748 7.39429C14.0756 7.39429 15.4191 7.95076 16.4096 8.94128C17.4001 9.9318 17.9566 11.2752 17.9566 12.676C17.9566 14.0768 17.4001 15.4203 16.4096 16.4108C15.4191 17.4013 14.0756 17.9578 12.6748 17.9578C11.274 17.9578 9.93058 17.4013 8.94006 16.4108C7.94954 15.4203 7.39307 14.0768 7.39307 12.676C7.39307 11.2752 7.94954 9.9318 8.94006 8.94128C9.93058 7.95076 11.274 7.39429 12.6748 7.39429ZM19.5411 7.13021C19.5411 7.48041 19.402 7.81627 19.1543 8.0639C18.9067 8.31153 18.5709 8.45064 18.2207 8.45064C17.8704 8.45064 17.5346 8.31153 17.287 8.0639C17.0393 7.81627 16.9002 7.48041 16.9002 7.13021C16.9002 6.78001 17.0393 6.44415 17.287 6.19652C17.5346 5.94889 17.8704 5.80977 18.2207 5.80977C18.5709 5.80977 18.9067 5.94889 19.1543 6.19652C19.402 6.44415 19.5411 6.78001 19.5411 7.13021ZM12.6748 4.22525C10.0614 4.22525 9.63465 4.23264 8.41879 4.28652C7.59061 4.3256 7.03497 4.43652 6.51947 4.63722C6.06102 4.81469 5.73038 5.02702 5.37862 5.37984C5.04799 5.69928 4.79377 6.08926 4.63495 6.52069C4.43424 7.0383 4.32332 7.59289 4.28529 8.42001C4.23036 9.58622 4.22403 9.99397 4.22403 12.676C4.22403 15.2894 4.23142 15.7162 4.28529 16.9321C4.32438 17.7592 4.4353 18.3159 4.63495 18.8303C4.81453 19.2898 5.0258 19.6205 5.3765 19.9712C5.73249 20.3261 6.06313 20.5384 6.51736 20.7138C7.0392 20.9156 7.59484 21.0275 8.41879 21.0656C9.585 21.1205 9.99275 21.1268 12.6748 21.1268C15.2882 21.1268 15.715 21.1194 16.9308 21.0656C17.7569 21.0265 18.3136 20.9156 18.8291 20.7159C19.2865 20.5374 19.6193 20.3251 19.97 19.9744C20.326 19.6184 20.5383 19.2877 20.7136 18.8335C20.9143 18.3127 21.0263 17.756 21.0643 16.9321C21.1193 15.7659 21.1256 15.3581 21.1256 12.676C21.1256 10.0626 21.1182 9.63587 21.0643 8.42001C21.0253 7.59395 20.9143 7.03619 20.7136 6.52069C20.5544 6.08971 20.3007 5.69987 19.971 5.37984C19.6517 5.04904 19.2617 4.7948 18.8302 4.63617C18.3126 4.43546 17.7569 4.32454 16.9308 4.28652C15.7646 4.23159 15.3569 4.22525 12.6748 4.22525ZM12.6748 2.11255C15.5449 2.11255 15.903 2.12311 17.0291 2.17593C18.1541 2.22875 18.92 2.40516 19.5939 2.66713C20.2911 2.93544 20.8784 3.29883 21.4658 3.8851C22.0029 4.41317 22.4185 5.05193 22.6837 5.75695C22.9446 6.42985 23.1221 7.19676 23.1749 8.32177C23.2246 9.44784 23.2383 9.80594 23.2383 12.676C23.2383 15.5461 23.2277 15.9042 23.1749 17.0303C23.1221 18.1553 22.9446 18.9212 22.6837 19.5951C22.4193 20.3005 22.0036 20.9395 21.4658 21.467C20.9375 22.0039 20.2988 22.4195 19.5939 22.6849C18.921 22.9459 18.1541 23.1233 17.0291 23.1762C15.903 23.2258 15.5449 23.2395 12.6748 23.2395C9.80472 23.2395 9.44662 23.229 8.32055 23.1762C7.19554 23.1233 6.42968 22.9459 5.75573 22.6849C5.05044 22.4203 4.41156 22.0046 3.88388 21.467C3.34663 20.939 2.93098 20.3002 2.66591 19.5951C2.40394 18.9222 2.22753 18.1553 2.17471 17.0303C2.12506 15.9042 2.11133 15.5461 2.11133 12.676C2.11133 9.80594 2.12189 9.44784 2.17471 8.32177C2.22753 7.1957 2.40394 6.4309 2.66591 5.75695C2.93025 5.0515 3.34599 4.41256 3.88388 3.8851C4.41171 3.34767 5.05054 2.93199 5.75573 2.66713C6.42968 2.40516 7.19448 2.22875 8.32055 2.17593C9.44662 2.12628 9.80472 2.11255 12.6748 2.11255Z" fill="#C0C2D7"/>
</g>
<defs>
<clipPath id="clip0_102_1803">
<rect width="25.3524" height="25.3524" fill="white"/>
</clipPath>
</defs>
</svg>
