<svg width="34" height="35" viewBox="0 0 34 35" fill="none" xmlns="http://www.w3.org/2000/svg">
<path d="M33.3333 25.0033C33.3326 27.2826 32.5535 29.4933 31.125 31.2694C29.6966 33.0455 27.7044 34.2805 25.4783 34.77L24.415 31.58C25.3887 31.4196 26.3147 31.0452 27.1263 30.4838C27.9379 29.9224 28.6148 29.1879 29.1083 28.3333H25C24.1159 28.3333 23.2681 27.9821 22.643 27.357C22.0179 26.7319 21.6667 25.8841 21.6667 25V18.3333C21.6667 17.4493 22.0179 16.6014 22.643 15.9763C23.2681 15.3512 24.1159 15 25 15H29.8967C29.4899 11.7782 27.9215 8.81546 25.4857 6.66779C23.0499 4.52013 19.9141 3.33513 16.6667 3.33513C13.4193 3.33513 10.2834 4.52013 7.84762 6.66779C5.4118 8.81546 3.84338 11.7782 3.43667 15H8.33333C9.21739 15 10.0652 15.3512 10.6904 15.9763C11.3155 16.6014 11.6667 17.4493 11.6667 18.3333V25C11.6667 25.8841 11.3155 26.7319 10.6904 27.357C10.0652 27.9821 9.21739 28.3333 8.33333 28.3333H3.33333C2.44928 28.3333 1.60143 27.9821 0.976311 27.357C0.351189 26.7319 0 25.8841 0 25V16.6667C0 7.46167 7.46167 0 16.6667 0C25.8717 0 33.3333 7.46167 33.3333 16.6667V25.0033ZM30 25V18.3333H25V25H30ZM3.33333 18.3333V25H8.33333V18.3333H3.33333Z" fill="#F4683F"/>
</svg>
