<svg width="34" height="34" viewBox="0 0 34 34" fill="none" xmlns="http://www.w3.org/2000/svg">
<path d="M28.3333 0C29.2533 0 30 0.746667 30 1.66667V7.92833L26.6667 11.2617V3.33333H3.33333V30H26.6667V25.4033L30 22.07V31.6667C30 32.5867 29.2533 33.3333 28.3333 33.3333H1.66667C0.746667 33.3333 0 32.5867 0 31.6667V1.66667C0 0.746667 0.746667 0 1.66667 0H28.3333ZM31.2967 11.3467L33.6533 13.7033L20.69 26.6667L18.33 26.6633L18.3333 24.31L31.2967 11.3467ZM16.6667 16.6667V20H8.33333V16.6667H16.6667ZM21.6667 10V13.3333H8.33333V10H21.6667Z" fill="#F4683F"/>
</svg>
