<svg width="31" height="36" viewBox="0 0 31 36" fill="none" xmlns="http://www.w3.org/2000/svg">
<path d="M23.0683 24.4317L23.3617 24.7267L23.6583 24.4317C24.0066 24.0834 24.42 23.8072 24.8749 23.6188C25.3299 23.4303 25.8175 23.3333 26.31 23.3333C26.8025 23.3333 27.2901 23.4303 27.7451 23.6188C28.2 23.8072 28.6134 24.0834 28.9617 24.4317C29.3099 24.7799 29.5861 25.1933 29.7746 25.6483C29.963 26.1032 30.06 26.5909 30.06 27.0833C30.06 27.5758 29.963 28.0634 29.7746 28.5184C29.5861 28.9734 29.3099 29.3868 28.9617 29.735L23.3617 35.3333L17.765 29.735C17.0617 29.0317 16.6666 28.0779 16.6666 27.0833C16.6666 26.0888 17.0617 25.1349 17.765 24.4317C18.4683 23.7284 19.4221 23.3333 20.4167 23.3333C21.4112 23.3333 22.3651 23.7284 23.0683 24.4317ZM13.3333 21.6667V25C10.6812 25 8.13763 26.0536 6.26227 27.9289C4.3869 29.8043 3.33333 32.3478 3.33333 35H0C4.01811e-05 31.536 1.34823 28.2079 3.75912 25.7205C6.17 23.2331 9.45431 21.7816 12.9167 21.6733L13.3333 21.6667ZM13.3333 0C18.8583 0 23.3333 4.475 23.3333 10C23.3343 12.5875 22.3318 15.0747 20.5368 16.9384C18.7418 18.802 16.2941 19.8971 13.7083 19.9933L13.3333 20C7.80833 20 3.33333 15.525 3.33333 10C3.33241 7.41245 4.33484 4.92534 6.12984 3.06165C7.92485 1.19795 10.3726 0.102869 12.9583 0.00666658L13.3333 0ZM13.3333 3.33333C9.65 3.33333 6.66667 6.31667 6.66667 10C6.66667 13.6833 9.65 16.6667 13.3333 16.6667C17.0167 16.6667 20 13.6833 20 10C20 6.31667 17.0167 3.33333 13.3333 3.33333Z" fill="#F4683F"/>
</svg>
