<svg width="23" height="23" viewBox="0 0 23 23" fill="none" xmlns="http://www.w3.org/2000/svg">
<path fill-rule="evenodd" clip-rule="evenodd" d="M10.1783 0.0686301C4.86123 0.721674 0.682406 4.96027 0.132143 10.2586C0.0506033 11.0438 0.0999909 12.5306 0.232608 13.281C0.442517 14.4693 0.789871 15.5148 1.32975 16.5831L1.60102 17.12L0.792719 20.0541C0.348135 21.6679 -0.00848781 22.9935 0.000153798 22.9999C0.00884368 23.0062 1.36287 22.6578 3.00912 22.2256C5.40569 21.5963 6.02634 21.4488 6.123 21.4854C6.18938 21.5105 6.50438 21.6486 6.82301 21.7922C7.85788 22.2586 8.94465 22.5679 10.0882 22.7216C10.8829 22.8284 12.2777 22.8278 13.0508 22.7202C15.5883 22.3672 17.8553 21.2521 19.6422 19.4779C20.5766 18.5502 21.1979 17.7016 21.7895 16.5454C22.3221 15.5042 22.698 14.3691 22.908 13.1672C23.0308 12.4648 23.0306 10.4006 22.9077 9.66448C22.7001 8.42082 22.3796 7.4272 21.8321 6.32969C20.2738 3.20645 17.3963 0.98006 13.9557 0.235658C12.8831 0.00361363 11.2836 -0.0671128 10.1783 0.0686301ZM13.1956 2.05454C14.5805 2.30908 15.7288 2.7689 16.8647 3.52362C18.8038 4.81215 20.2312 6.81302 20.7954 9.03347C21.2097 10.6641 21.1772 12.5162 20.7065 14.0842C19.9457 16.6194 18.1321 18.7534 15.7589 19.9061C14.3792 20.5762 13.1025 20.8684 11.5542 20.8684C9.7796 20.8684 8.20649 20.4405 6.60099 19.5208L6.33064 19.366L4.55389 19.83C3.57667 20.0852 2.76972 20.2866 2.76064 20.2776C2.75156 20.2686 2.95206 19.5086 3.20619 18.5887C3.46027 17.6689 3.67004 16.8824 3.6723 16.8411C3.67457 16.7997 3.54963 16.5608 3.39466 16.3101C1.11782 12.6271 1.71457 7.77003 4.8213 4.69828C6.3667 3.17028 8.32318 2.23126 10.5162 1.96495C11.1085 1.89303 12.5855 1.9424 13.1956 2.05454ZM7.04736 6.24121C6.76817 6.37859 6.25803 6.97741 6.04474 7.41813C5.62579 8.28383 5.63433 9.3751 6.06796 10.3856C6.60084 11.6273 7.99509 13.3904 9.37147 14.5629C10.3362 15.3847 11.1423 15.8663 12.3266 16.3283C13.5364 16.8002 13.7685 16.8545 14.5715 16.8542C15.2031 16.854 15.3033 16.842 15.597 16.732C16.0799 16.5512 16.4403 16.3235 16.7993 15.9722C17.0778 15.6996 17.1339 15.6143 17.2251 15.3244C17.3389 14.963 17.4039 14.3813 17.353 14.1799C17.3264 14.0746 17.19 13.9892 16.5042 13.6479C15.2475 13.0225 14.741 12.8073 14.5257 12.8073C14.3494 12.8073 14.3193 12.8288 14.1061 13.1072C13.6186 13.7436 13.1713 14.2365 13.0548 14.2655C12.9152 14.3003 12.6409 14.2005 12.0075 13.8843C10.9819 13.3724 10.1452 12.6878 9.42578 11.7721C9.03425 11.2738 8.68168 10.7059 8.68168 10.5736C8.68168 10.5169 8.8632 10.2352 9.08509 9.94758C9.51992 9.38383 9.64723 9.17348 9.64723 9.01864C9.64723 8.96432 9.55294 8.69874 9.4377 8.4285C9.32246 8.15821 9.09006 7.60243 8.92123 7.19338C8.71195 6.68639 8.56505 6.39999 8.4597 6.2937L8.30512 6.13776L7.78131 6.13781C7.34223 6.13781 7.22352 6.15456 7.04736 6.24121Z" fill="#C0C2D7"/>
</svg>
